# xmcd
#
# Track frame offsets:
#	183
#	24645
#	41035
#	58728
#	76930
#	103188
#	116275
#	137255
#	153743
#	172465
#	190303
#	208365
#
# Disc length: 3083 seconds
#
# Revision: 3
# Processed by: cddbd v1.5.2PL0 Copyright (c) Steve Scherf et al.
# Submitted via: EasyCDDAExtractor 16.0.6.1
#
DISCID=ae0c090c
DTITLE=The Bluesband  - Fat City
DYEAR=1991
DGENRE=Blues
TTITLE0=Fat City
TTITLE1=Longing for You Baby
TTITLE2=Help Me
TTITLE3=I Can't Tell It All
TTITLE4=Down to the River
TTITLE5=Country Blues No. 48
TTITLE6=Cold Emotions, Frozen Hearts
TTITLE7=Killing Me By Degrees
TTITLE8=The Duisburg Blues
TTITLE9=So Lonely
TTITLE10=Too Bad You're No Good
TTITLE11=Long Time Gone
EXTD=
EXTT0=
EXTT1=
EXTT2=
EXTT3=
EXTT4=
EXTT5=
EXTT6=
EXTT7=
EXTT8=
EXTT9=
EXTT10=
EXTT11=
PLAYORDER=
